<svg width="416" height="136" viewBox="0 0 416 136" fill="none" xmlns="http://www.w3.org/2000/svg">
<path d="M117.681 66.1083C117.681 76.5954 115.822 86.0205 112.105 94.3836C108.521 102.614 103.41 109.65 96.7731 115.49C90.2684 121.331 82.6354 125.778 73.8741 128.832C65.1127 131.885 55.5549 133.411 45.2006 133.411H0V0H46.1962C60.5329 0 73.0112 2.7877 83.631 8.3631C94.3836 13.8058 102.747 21.5051 108.72 31.4612C114.694 41.2845 117.681 52.8336 117.681 66.1083ZM96.7731 66.1083C96.7731 56.6833 94.6491 48.4529 90.4012 41.4173C86.1532 34.2489 80.246 28.6735 72.6794 24.6911C65.1127 20.7086 56.285 18.7174 46.1962 18.7174H20.3104V104.893C20.3104 110.416 24.7875 114.893 30.3104 114.893H45.2006C52.5017 114.893 59.2718 113.765 65.511 111.508C71.7501 109.251 77.1928 106.065 81.8389 101.95C86.6179 97.835 90.2684 92.7243 92.7906 86.6179C95.4456 80.5115 96.7731 73.675 96.7731 66.1083Z" fill="#0F7375"/>
<path d="M167.627 116.685C173.733 116.685 178.844 115.159 182.959 112.105C187.207 108.919 190.393 104.738 192.517 99.5608C194.641 94.3836 195.703 88.8082 195.703 82.8345V45.8419C195.703 40.319 200.18 35.8419 205.703 35.8419H215.416V85.224C215.416 94.6491 213.557 103.211 209.84 110.911C206.123 118.477 200.681 124.517 193.512 129.031C186.477 133.544 177.848 135.801 167.627 135.801C157.538 135.801 148.976 133.544 141.94 129.031C134.904 124.385 129.528 118.278 125.811 110.712C122.094 103.012 120.236 94.45 120.236 85.0249V35.8419H129.949C135.472 35.8419 139.949 40.319 139.949 45.8419V83.0337C139.949 88.8746 141.011 94.3836 143.135 99.5608C145.259 104.738 148.378 108.919 152.493 112.105C156.609 115.159 161.653 116.685 167.627 116.685Z" fill="#0F7375"/>
<path d="M249.69 120.668L218.229 35.8419H232.313C236.527 35.8419 240.289 38.4835 241.72 42.4472L268.009 115.291C268.009 115.822 268.208 116.287 268.607 116.685C269.138 116.951 269.669 117.083 270.2 117.083C270.863 117.083 271.394 116.951 271.793 116.685C272.191 116.287 272.456 115.822 272.589 115.291L298.879 42.4472C300.309 38.4835 304.071 35.8419 308.285 35.8419H322.17L290.51 120.668C288.652 125.712 285.997 129.562 282.545 132.217C279.094 134.739 274.979 136 270.2 136C265.553 136 261.438 134.739 257.854 132.217C254.27 129.562 251.549 125.712 249.69 120.668Z" fill="#0F7375"/>
<path d="M360.908 135.801C351.483 135.801 343.053 133.478 335.619 128.832C328.318 124.185 322.544 118.013 318.296 110.313C314.048 102.481 311.924 93.8526 311.924 84.4275C311.924 75.1352 314.181 66.6393 318.694 58.94C323.34 51.1079 329.579 44.9351 337.411 40.4217C345.244 35.7755 354.071 33.4524 363.895 33.4524C373.718 33.4524 382.546 35.7091 390.378 40.2225C398.21 44.6032 404.383 50.6432 408.896 58.3426C413.542 66.042 415.865 74.7369 415.865 84.4275V133.411H407.148C401.625 133.411 397.148 128.934 397.148 123.411V96.9722L403.918 91.795C403.918 100.025 402.06 107.459 398.343 114.097C394.759 120.734 389.714 126.044 383.21 130.026C376.838 133.876 369.404 135.801 360.908 135.801ZM363.895 117.083C370.001 117.083 375.51 115.623 380.422 112.703C385.333 109.782 389.183 105.866 391.971 100.955C394.758 95.9102 396.152 90.4675 396.152 84.6266C396.152 78.653 394.758 73.2103 391.971 68.2987C389.183 63.387 385.333 59.471 380.422 56.5505C375.51 53.4973 370.001 51.9707 363.895 51.9707C357.788 51.9707 352.279 53.4973 347.368 56.5505C342.589 59.471 338.739 63.387 335.819 68.2987C333.031 73.2103 331.637 78.653 331.637 84.6266C331.637 90.4675 333.031 95.9102 335.819 100.955C338.739 105.866 342.589 109.782 347.368 112.703C352.279 115.623 357.788 117.083 363.895 117.083Z" fill="#0F7375"/>
<circle cx="363.529" cy="84.6264" r="33.1869" fill="#0F7375"/>
<rect x="352.412" y="51.4395" width="22.0693" height="66.3738" rx="2.98682" fill="#C8F3F9"/>
<rect x="396.717" y="73.5088" width="22.0693" height="66.3738" rx="2.98682" transform="rotate(90 396.717 73.5088)" fill="#C8F3F9"/>
</svg>
